<?xml version="1.0"?>
<svg xmlns="http://www.w3.org/2000/svg" width="512" height="512" viewBox="0 0 128 128" fill="#2dbe60"><path d="M80.838,96.622a1.75,1.75,0,0,0,0,3.5,3.812,3.812,0,0,1,3.807,3.808,1.75,1.75,0,0,0,3.5,0A7.316,7.316,0,0,0,80.838,96.622Z"/><path d="M47.119,96.622a7.316,7.316,0,0,0-7.307,7.308,1.75,1.75,0,0,0,3.5,0,3.812,3.812,0,0,1,3.807-3.808,1.75,1.75,0,0,0,0-3.5Z"/><path d="M63.979,39.583a7.084,7.084,0,1,0,7.083,7.084A7.091,7.091,0,0,0,63.979,39.583Zm0,10.667a3.584,3.584,0,1,1,3.583-3.583A3.587,3.587,0,0,1,63.979,50.25Z"/><path d="M112.131,33.857A40.2,40.2,0,0,0,127.979,1.75,1.75,1.75,0,0,0,124.925.582l-5.7,6.36A37.047,37.047,0,0,1,91.671,19.25H36.329A37.047,37.047,0,0,1,8.774,6.942L3.075.582A1.75,1.75,0,0,0,.021,1.75a40.194,40.194,0,0,0,15.836,32.1A22.224,22.224,0,0,0,.021,55.1v6.229a1.75,1.75,0,0,0,1.75,1.75H18.042a21.917,21.917,0,0,0,5.6-.735,32.386,32.386,0,0,0,5.657,10l2.489,2.99a29.042,29.042,0,0,1,5.906,11.829l.974,4.116a15.25,15.25,0,0,0,8.455,27.958c.3,0,.606-.01.907-.028a9.763,9.763,0,0,0,9.7,8.792h12.5a9.761,9.761,0,0,0,9.7-8.8,15.752,15.752,0,0,0,3.039-.108,15.266,15.266,0,0,0,6.34-27.886l.957-4.044a29.038,29.038,0,0,1,5.907-11.829l2.489-2.99a32.4,32.4,0,0,0,5.656-10,21.924,21.924,0,0,0,5.6.735h16.27a1.75,1.75,0,0,0,1.75-1.75V55.1A22.223,22.223,0,0,0,112.131,33.857ZM91.671,22.75A40.551,40.551,0,0,0,121.833,9.278l2.322-2.591a36.744,36.744,0,0,1-16.833,26.288c-2.364-.171-4.763-.058-7.131-.058A32.347,32.347,0,0,0,88.383,22.75ZM99.4,38.708A49.368,49.368,0,0,0,70.438,81.041c-.132,2.521-.069,5.057-.069,7.581H57.588V83.528a49.3,49.3,0,0,0-18.3-38.283,49.177,49.177,0,0,0-10.866-6.6c-.306-.135,3.839-5.784,4.228-6.219A29.058,29.058,0,0,1,54.184,22.75H73.773a29.048,29.048,0,0,1,21.533,9.673c.394.44,4.535,6.084,4.229,6.22Zm-78.72-5.734A36.742,36.742,0,0,1,3.845,6.687L6.167,9.278A40.551,40.551,0,0,0,36.329,22.75h3.245A32.336,32.336,0,0,0,27.767,32.917C25.413,32.917,23.025,32.8,20.676,32.974ZM22.658,58.99a18.4,18.4,0,0,1-4.616.593H3.521V55.1A18.708,18.708,0,0,1,22.208,36.417h3.4A32.509,32.509,0,0,0,22.658,58.99ZM41.1,86.357A32.549,32.549,0,0,0,34.475,73.1L31.986,70.1a28.989,28.989,0,0,1-4.974-28.258A45.674,45.674,0,0,1,52.277,70.729a46.452,46.452,0,0,1,1.811,12.8v5.094c-4.045,0-8.357-.418-12.213,1.02ZM76.469,118.6a6.257,6.257,0,0,1-6.24,5.9h-12.5a6.258,6.258,0,0,1-6.241-5.907,15.284,15.284,0,0,0,4.552-2.24,15.935,15.935,0,0,0,3.525-3.531A4.811,4.811,0,0,1,63.5,110.6h.953c2.887,0,3.95,2.581,5.755,4.327A15.311,15.311,0,0,0,76.469,118.6Zm16.1-13.309a11.8,11.8,0,0,1-21.458,5.318,8.072,8.072,0,0,0-6.657-3.509H63.5a8.068,8.068,0,0,0-6.655,3.506,11.987,11.987,0,0,1-9.727,5.134,11.807,11.807,0,0,1-11.794-12.38c.3-6.349,5.912-11.234,12.176-11.234H80.838A11.938,11.938,0,0,1,92.57,105.287Zm3.4-35.183L93.482,73.1a32.568,32.568,0,0,0-6.623,13.262L86.1,89.566c-3.838-1.408-8.214-.944-12.232-.944,0-2.1-.039-4.2.016-6.3a46.335,46.335,0,0,1,2.377-13.456,45.165,45.165,0,0,1,12.513-19.1,46.186,46.186,0,0,1,12.17-7.912A28.987,28.987,0,0,1,95.971,70.1Zm28.465-10.521h-14.52a18.413,18.413,0,0,1-4.617-.593,32.509,32.509,0,0,0-2.948-22.573h3.4A18.708,18.708,0,0,1,124.436,55.1Z"/><path d="M90.125,65.335a13.367,13.367,0,0,1-7.5,2.291h-.648a1.75,1.75,0,1,0,0,3.5h.648a16.856,16.856,0,0,0,9.455-2.889,1.75,1.75,0,1,0-1.956-2.9Z"/><path d="M47.729,69.376a1.749,1.749,0,0,0-1.75-1.75h-.648a13.361,13.361,0,0,1-7.5-2.291,1.75,1.75,0,1,0-1.957,2.9,16.853,16.853,0,0,0,9.455,2.889h.648A1.749,1.749,0,0,0,47.729,69.376Z"/></svg>
